PathFileType  4	(X/Y/Z) C:\Users\antoi\Documents\MyRepositories\mobilecap\ResultsAnalysis
DataRate	CameraRate	NumFrames	NumMarkers	Units	OrigDataRate	OrigDataStartFrame	OrigNumFrames
100.0	100.0	4	51	mm	100.0	189	301
Frame#	Time	r_knee			r_shank_antsup			r_ankle			r_calc			r_5meta			r_toe			L_knee			L_shank_antsup			L_ankle			L_calc			L_5meta			L_toe			r_sh2			r_sh3			r_sh4			L_sh2			L_sh3			r_thigh1			r_thigh2			r_thigh3			r_thigh4			r_thigh5			L_thigh1			L_thigh2			L_thigh3			L_thigh4			r.ASIS			r.PSIS			L.ASIS			L.PSIS			C7			R_Shoulder			L_Shoulder			R_Sternum			L_Sternum			R_humerus			R_elbow_med			R_elbow_lat			R_forearm			R_wrist_radius			R_wrist_ulna			L_humerus			L_elbow_med			L_elbow_lat			L_forearm			L_wrist_radius			L_wrist_ulna			R_HJC			L_HJC			R_HJC_reg			L_HJC_reg			
		X1	Y1	Z1	X2	Y2	Z2	X3	Y3	Z3	X4	Y4	Z4	X5	Y5	Z5	X6	Y6	Z6	X7	Y7	Z7	X8	Y8	Z8	X9	Y9	Z9	X10	Y10	Z10	X11	Y11	Z11	X12	Y12	Z12	X13	Y13	Z13	X14	Y14	Z14	X15	Y15	Z15	X16	Y16	Z16	X17	Y17	Z17	X18	Y18	Z18	X19	Y19	Z19	X20	Y20	Z20	X21	Y21	Z21	X22	Y22	Z22	X23	Y23	Z23	X24	Y24	Z24	X25	Y25	Z25	X26	Y26	Z26	X27	Y27	Z27	X28	Y28	Z28	X29	Y29	Z29	X30	Y30	Z30	X31	Y31	Z31	X32	Y32	Z32	X33	Y33	Z33	X34	Y34	Z34	X35	Y35	Z35	X36	Y36	Z36	X37	Y37	Z37	X38	Y38	Z38	X39	Y39	Z39	X40	Y40	Z40	X41	Y41	Z41	X42	Y42	Z42	X43	Y43	Z43	X44	Y44	Z44	X45	Y45	Z45	X46	Y46	Z46	X47	Y47	Z47	X48	Y48	Z48	X49	Y49	Z49	X50	Y50	Z50	X51	Y51	Z51	

189	1.88000000	-351.00154	707.06174	-365.03417	-371.08002	656.83895	-334.54277	-314.45083	301.09688	-376.95982	-370.92115	281.20013	-432.57742	-201.41186	207.01682	-350.09259	-153.82590	232.99173	-396.67724	-377.96572	711.87344	-739.55182	-338.00307	634.60215	-755.55894	-353.40181	309.32299	-751.69115	-417.63059	282.66350	-704.41088	-243.75435	214.30385	-764.82947	-201.29627	230.19553	-710.37725	-353.35259	541.78787	-327.69935	-303.12679	668.95028	-369.57394	-285.08233	556.02652	-373.91618	-425.65708	636.99841	-766.94837	-413.92120	515.59260	-775.34258	-427.02511	991.73793	-354.35768	-382.33016	886.97145	-340.88482	-334.92628	883.15064	-372.56527	-379.96320	998.98859	-455.09717	-331.80580	899.90526	-438.43205	-432.69982	1028.67436	-716.74494	-394.35600	894.23319	-745.04467	-541.61645	998.01343	-731.40815	-504.40466	860.95558	-723.56839	-408.20021	1133.34375	-417.44330	-584.91305	1207.67111	-483.47460	-418.86738	1128.34436	-645.04318	-588.65614	1211.82741	-581.08739	-322.10849	1620.45241	-539.07314	-289.27999	1589.30189	-394.16050	-297.89158	1562.79983	-686.37367	-265.97072	1490.16880	-514.95213	-269.04575	1484.24471	-545.62721	-454.22524	1505.50506	-236.57439	-563.73248	1470.67486	-241.54238	-533.44070	1483.51548	-186.91424	-533.58760	1356.25061	-114.00274	-545.74440	1255.41580	-94.84078	-559.59046	1277.83197	-55.50424	-466.44024	1458.26923	-819.00644	-584.36147	1401.65394	-793.88651	-558.62025	1409.16565	-856.33840	-480.13219	1282.83242	-856.88653	-410.76939	1207.28737	-827.28448	-447.80012	1181.72860	-836.30378	-499.33816	1070.34600	-445.83385	-515.44559	1079.87832	-635.58432	-491.85583	1075.04756	-447.97327	-497.61490	1081.44273	-598.14346	
190	1.89000000	-339.41405	682.20705	-363.28724	-359.16404	631.90621	-332.88961	-300.11277	276.90152	-374.85993	-356.22344	256.73118	-431.02009	-186.56442	183.05725	-347.42204	-139.15799	208.68250	-394.07496	-365.08483	688.42296	-740.96507	-324.03953	611.97927	-756.64487	-334.03244	286.30094	-753.88982	-397.50326	258.27862	-706.61032	-222.95966	192.46012	-767.24293	-180.62814	209.04894	-712.68001	-340.76041	516.83105	-326.03944	-291.34051	644.57284	-367.80214	-272.41385	531.47085	-372.16090	-411.73868	613.01299	-768.11730	-397.93943	491.94751	-777.11017	-413.73255	967.81880	-353.39199	-369.36808	863.06270	-339.56769	-322.38197	858.59159	-371.72050	-367.04331	974.43999	-454.58263	-319.74087	875.40856	-436.97592	-419.86421	1004.53144	-715.97589	-381.83765	870.12916	-744.76555	-528.88329	973.89722	-730.72569	-491.83032	836.77527	-723.31750	-396.15987	1109.67395	-416.29268	-573.31739	1182.69421	-481.93952	-407.16299	1105.31494	-643.87139	-577.19154	1187.11199	-579.85674	-313.09887	1597.60683	-538.41270	-279.86266	1568.45861	-395.73114	-288.31411	1541.85498	-684.53926	-256.49658	1466.86965	-514.26853	-259.59723	1460.72030	-545.63588	-448.13736	1489.49381	-241.85714	-557.76100	1456.81891	-248.51824	-528.76335	1470.42870	-194.37488	-529.39695	1346.27437	-116.82703	-540.93516	1245.86033	-96.13345	-555.63204	1269.71043	-56.20915	-457.42087	1443.31315	-817.95174	-577.43378	1388.78721	-792.41820	-551.71400	1396.31049	-854.36296	-473.20051	1270.67287	-857.95974	-402.91240	1194.64471	-829.59059	-439.84972	1168.85469	-838.79688	-486.77831	1046.01624	-444.84429	-503.11176	1055.95573	-634.55475	-479.39472	1050.81681	-446.91253	-485.33497	1057.59090	-597.04720	
191	1.90000000	-326.68456	657.38254	-361.80602	-346.53185	607.14166	-331.56432	-287.31785	252.66091	-372.67973	-343.28112	232.21502	-429.41511	-174.11912	158.25456	-344.54978	-126.68635	183.16842	-391.34386	-350.73051	664.91880	-741.75114	-308.83343	589.16531	-757.63393	-315.76444	262.95387	-756.14312	-378.32082	233.95518	-708.49263	-203.81730	169.46977	-769.06711	-161.31414	187.28548	-715.02153	-328.63917	492.18359	-324.62363	-278.47261	619.91424	-366.14577	-259.51412	506.63823	-370.23862	-396.55972	589.27532	-769.07331	-381.63080	468.35279	-778.70287	-400.58296	943.45949	-352.28035	-355.96548	838.80378	-338.17057	-309.17095	834.27637	-370.54791	-354.47537	949.58056	-453.83786	-307.02733	851.02628	-435.62136	-407.23189	980.32190	-715.30803	-368.58769	846.18389	-744.56264	-516.01956	949.05472	-730.41746	-478.44729	812.00341	-723.14292	-384.84168	1085.40409	-414.97949	-562.39011	1156.84591	-480.56650	-395.69887	1081.47371	-641.97835	-566.25657	1161.43362	-578.87471	-304.16223	1573.52692	-537.85687	-270.13952	1545.70071	-396.72289	-278.73234	1519.43138	-682.73328	-246.94268	1442.83617	-513.70712	-249.98659	1436.55537	-545.45048	-440.77641	1469.88128	-246.82738	-550.73061	1437.84116	-255.94326	-523.33188	1453.52833	-201.85608	-523.77464	1332.21649	-119.73852	-532.10126	1232.09855	-94.12522	-549.68582	1257.18914	-56.97044	-448.13274	1424.75113	-815.83801	-568.80703	1370.82453	-789.31276	-544.12849	1378.85559	-851.27621	-464.67882	1253.88433	-858.41950	-393.11073	1177.81423	-831.73971	-429.97356	1151.56451	-840.74486	-474.84875	1020.98520	-443.61422	-490.93695	1031.08767	-633.33673	-467.42343	1026.05158	-445.66055	-473.31355	1033.03844	-595.39518	
192	1.91000000	-312.67425	632.70305	-360.82926	-333.13958	582.64991	-330.58208	-276.36599	228.26131	-370.93579	-332.61480	207.49161	-428.03764	-164.44565	132.73581	-341.99639	-116.97144	156.87715	-388.98191	-334.83752	641.33157	-741.95434	-292.45430	566.09323	-758.40757	-298.56632	239.29124	-757.98632	-360.56371	210.16771	-709.97903	-186.28770	145.85114	-770.29936	-143.43977	164.87729	-717.08506	-316.69203	468.13619	-323.07982	-264.49221	594.90071	-364.54386	-246.36834	481.54245	-368.29630	-380.20769	565.82821	-769.64023	-364.92921	444.73355	-779.78472	-387.85509	918.45808	-351.02634	-342.33224	814.24396	-336.74264	-295.34784	810.29648	-369.04572	-342.45453	924.76511	-452.67748	-293.77880	826.33566	-435.09856	-394.99705	956.01070	-714.48935	-354.58536	822.45369	-744.24946	-503.18267	923.39710	-730.20466	-464.15204	786.76778	-723.26228	-374.23679	1060.34057	-413.76466	-552.25666	1130.05943	-479.53634	-384.69805	1056.47756	-640.40188	-556.05371	1134.89049	-578.02259	-295.21819	1547.99029	-537.69010	-260.07696	1520.66564	-397.14756	-269.29504	1495.23931	-681.24586	-237.17591	1417.82581	-513.34598	-240.15022	1411.49736	-545.01619	-432.93867	1446.87213	-251.00053	-543.28446	1413.70600	-263.12991	-517.77614	1432.28344	-208.97329	-516.91729	1313.54238	-122.48399	-519.79044	1213.87068	-89.41690	-541.74899	1239.63468	-57.96270	-439.37852	1402.33430	-812.97281	-558.95698	1346.28877	-785.07159	-535.85001	1355.95578	-847.98898	-454.56414	1231.79911	-858.20213	-381.35689	1156.40360	-833.63929	-418.04880	1129.37232	-842.02005	-463.62399	995.10437	-442.51081	-479.39200	1005.19257	-632.26072	-456.07505	1000.10096	-444.65047	-461.83824	1007.43338	-594.12114	
